<?xml version="1.0" encoding="UTF-8"?>
<svg xmlns="http://www.w3.org/2000/svg" viewBox="0 0 1600 1150">
  <style>
    @import url('https://fonts.googleapis.com/css2?family=JetBrains+Mono:wght@400;500;600;700&amp;display=swap');
    text { font-family: 'JetBrains Mono', 'Noto Sans SC', 'PingFang SC', sans-serif; }
  </style>

  <defs>
    <!-- Grid -->
    <pattern id="grid" width="40" height="40" patternUnits="userSpaceOnUse">
      <path d="M 40 0 L 0 0 0 40" fill="none" stroke="#1e293b" stroke-width="0.5"/>
    </pattern>

    <!-- Arrow markers -->
    <marker id="arrow" markerWidth="10" markerHeight="7" refX="9" refY="3.5" orient="auto">
      <polygon points="0 0, 10 3.5, 0 7" fill="#94a3b8"/>
    </marker>
    <marker id="arrow-cyan" markerWidth="10" markerHeight="7" refX="9" refY="3.5" orient="auto">
      <polygon points="0 0, 10 3.5, 0 7" fill="#22d3ee"/>
    </marker>
    <marker id="arrow-emerald" markerWidth="10" markerHeight="7" refX="9" refY="3.5" orient="auto">
      <polygon points="0 0, 10 3.5, 0 7" fill="#34d399"/>
    </marker>
    <marker id="arrow-amber" markerWidth="10" markerHeight="7" refX="9" refY="3.5" orient="auto">
      <polygon points="0 0, 10 3.5, 0 7" fill="#fbbf24"/>
    </marker>
    <marker id="arrow-rose" markerWidth="10" markerHeight="7" refX="9" refY="3.5" orient="auto">
      <polygon points="0 0, 10 3.5, 0 7" fill="#fb7185"/>
    </marker>
    <marker id="arrow-blue" markerWidth="10" markerHeight="7" refX="9" refY="3.5" orient="auto">
      <polygon points="0 0, 10 3.5, 0 7" fill="#60a5fa"/>
    </marker>
  </defs>

  <!-- ===== Background ===== -->
  <rect width="1600" height="1150" fill="#0f172a"/>
  <rect width="1600" height="1150" fill="url(#grid)"/>

  <!-- ============================================================ -->
  <!-- LEFT PANEL: Active Mode                                      -->
  <!-- ============================================================ -->

  <!-- Title -->
  <text x="30" y="30" fill="#22d3ee" font-size="16" font-weight="700">主动模式 (Active Mode)</text>
  <text x="30" y="48" fill="#64748b" font-size="9">机器人自主运动 + 全局匹配 + 信息增益探索 → 收敛后注入 AMCL</text>

  <!-- Phase 0: Init region -->
  <rect x="20" y="60" width="710" height="220" rx="10" fill="none" stroke="#334155" stroke-width="1" stroke-dasharray="6,3"/>
  <text x="32" y="78" fill="#475569" font-size="9" font-weight="600">Phase 0: 初始化</text>

  <!-- Phase 1: Data Collection region -->
  <rect x="20" y="290" width="710" height="190" rx="10" fill="none" stroke="#1e3a5f" stroke-width="1" stroke-dasharray="6,3"/>
  <text x="32" y="308" fill="#3b82f6" font-size="9" font-weight="600">Phase 1: 数据采集</text>

  <!-- Phase 2: Matching region -->
  <rect x="20" y="490" width="710" height="130" rx="10" fill="none" stroke="#0f3d2e" stroke-width="1" stroke-dasharray="6,3"/>
  <text x="32" y="508" fill="#10b981" font-size="9" font-weight="600">Phase 2: 匹配</text>

  <!-- Phase 3: Exploration region -->
  <rect x="20" y="630" width="710" height="220" rx="10" fill="none" stroke="#3b1f0e" stroke-width="1" stroke-dasharray="6,3"/>
  <text x="32" y="648" fill="#f59e0b" font-size="9" font-weight="600">Phase 3: 主动探索 (非 quick_mode)</text>

  <!-- Phase 4: Verification region -->
  <rect x="20" y="860" width="710" height="260" rx="10" fill="none" stroke="#3b0a2a" stroke-width="1" stroke-dasharray="6,3"/>
  <text x="32" y="878" fill="#ec4899" font-size="9" font-weight="600">Phase 4: 验证 &amp; 收敛</text>

  <!-- ===== Active: Arrows (drawn first, behind boxes) ===== -->

  <!-- Start → IDLE -->
  <line x1="365" y1="88" x2="365" y2="109" stroke="#94a3b8" stroke-width="1.5" marker-end="url(#arrow)"/>

  <!-- IDLE → BOOT_DELAY -->
  <line x1="365" y1="159" x2="365" y2="180" stroke="#94a3b8" stroke-width="1.5" marker-end="url(#arrow)"/>
  <text x="375" y="174" fill="#64748b" font-size="8">auto_start 或 服务调用</text>

  <!-- BOOT_DELAY → 旋转采集 Diamond -->
  <line x1="365" y1="228" x2="365" y2="255" stroke="#94a3b8" stroke-width="1.5" marker-end="url(#arrow)"/>

  <!-- 旋转采集 No → COLLECTING_SUBMAP1 -->
  <line x1="365" y1="330" x2="365" y2="362" stroke="#94a3b8" stroke-width="1.5" marker-end="url(#arrow)"/>
  <text x="377" y="350" fill="#fb7185" font-size="8">否</text>

  <!-- 旋转采集 Yes → ROTATING_360 -->
  <path d="M 430 290 L 610 290 L 610 318" fill="none" stroke="#94a3b8" stroke-width="1.5" marker-end="url(#arrow)"/>
  <text x="500" y="283" fill="#34d399" font-size="8">是</text>

  <!-- ROTATING_360 → ACTIVE_MULTISTEP -->
  <line x1="610" y1="363" x2="610" y2="392" stroke="#94a3b8" stroke-width="1.5" marker-end="url(#arrow)"/>

  <!-- COLLECTING_SUBMAP1 → ROUGH_MATCHING -->
  <line x1="365" y1="410" x2="365" y2="435" stroke="#94a3b8" stroke-width="1.5" marker-end="url(#arrow)"/>

  <!-- ROUGH_MATCHING → quick_mode Diamond -->
  <line x1="365" y1="483" x2="365" y2="510" stroke="#94a3b8" stroke-width="1.5" marker-end="url(#arrow)"/>

  <!-- ACTIVE_MULTISTEP → quick_mode Diamond (converge) -->
  <path d="M 610 441 L 430 441 L 430 510" fill="none" stroke="#94a3b8" stroke-width="1.5" marker-end="url(#arrow)"/>

  <!-- quick_mode Yes → DONE (right path) -->
  <path d="M 430 535 L 610 535 L 610 780 L 430 780 L 430 988" fill="none" stroke="#34d399" stroke-width="1.5" marker-end="url(#arrow-emerald)"/>
  <text x="510" y="528" fill="#34d399" font-size="9" font-weight="600">是 (快速模式)</text>

  <!-- quick_mode No → SELECTING_ACTIVE_MOTION -->
  <line x1="365" y1="570" x2="365" y2="625" stroke="#94a3b8" stroke-width="1.5" marker-end="url(#arrow)"/>
  <text x="377" y="600" fill="#fb7185" font-size="8">否</text>

  <!-- SELECTING_ACTIVE_MOTION → MOVING -->
  <line x1="365" y1="670" x2="365" y2="700" stroke="#94a3b8" stroke-width="1.5" marker-end="url(#arrow)"/>

  <!-- MOVING → COLLECTING_SUBMAP2 -->
  <line x1="365" y1="745" x2="365" y2="770" stroke="#94a3b8" stroke-width="1.5" marker-end="url(#arrow)"/>

  <!-- COLLECTING_SUBMAP2 → FILTERING -->
  <line x1="365" y1="815" x2="365" y2="838" stroke="#94a3b8" stroke-width="1.5" marker-end="url(#arrow)"/>

  <!-- FILTERING → 收敛 Diamond -->
  <line x1="365" y1="881" x2="365" y2="908" stroke="#94a3b8" stroke-width="1.5" marker-end="url(#arrow)"/>

  <!-- 收敛 Yes → DONE -->
  <line x1="365" y1="975" x2="365" y2="1005" stroke="#34d399" stroke-width="1.5" marker-end="url(#arrow-emerald)"/>
  <text x="377" y="993" fill="#34d399" font-size="9" font-weight="600">是 (收敛)</text>

  <!-- 收敛 No + 未达最大重试 → loop back to SELECTING -->
  <path d="M 300 940 L 180 940 L 180 647 L 248 647" fill="none" stroke="#fbbf24" stroke-width="1.5" stroke-dasharray="6,3" marker-end="url(#arrow-amber)"/>
  <text x="170" y="800" fill="#fbbf24" font-size="8" transform="rotate(-90 170 800)">否: 重试 (submap1←submap2)</text>

  <!-- 收敛 No + 达最大重试 → loop back to IDLE -->
  <path d="M 300 955 L 140 955 L 140 140 L 248 140" fill="none" stroke="#fb7185" stroke-width="1.5" stroke-dasharray="6,3" marker-end="url(#arrow-rose)"/>
  <text x="130" y="560" fill="#fb7185" font-size="8" transform="rotate(-90 130 560)">否: 达最大重试 → 重置</text>

  <!-- ===== Active: Masking rects (opaque backgrounds for boxes) ===== -->

  <!-- Start circle mask -->
  <circle cx="365" cy="78" r="12" fill="#0f172a"/>

  <!-- IDLE mask -->
  <rect x="263" y="109" width="204" height="50" rx="25" fill="#0f172a"/>

  <!-- BOOT_DELAY mask -->
  <rect x="263" y="180" width="204" height="48" rx="6" fill="#0f172a"/>

  <!-- 旋转采集 diamond mask -->
  <polygon points="365,258 430,288 365,318 300,288" fill="#0f172a"/>

  <!-- COLLECTING_SUBMAP1 mask -->
  <rect x="263" y="362" width="204" height="48" rx="6" fill="#0f172a"/>

  <!-- ROTATING_360 mask -->
  <rect x="513" y="318" width="194" height="45" rx="6" fill="#0f172a"/>

  <!-- ACTIVE_MULTISTEP mask -->
  <rect x="513" y="392" width="194" height="49" rx="6" fill="#0f172a"/>

  <!-- ROUGH_MATCHING mask -->
  <rect x="263" y="435" width="204" height="48" rx="6" fill="#0f172a"/>

  <!-- quick_mode diamond mask -->
  <polygon points="365,513 430,543 365,573 300,543" fill="#0f172a"/>

  <!-- SELECTING_ACTIVE_MOTION mask -->
  <rect x="248" y="625" width="234" height="55" rx="6" fill="#0f172a"/>

  <!-- MOVING mask -->
  <rect x="263" y="700" width="204" height="45" rx="6" fill="#0f172a"/>

  <!-- COLLECTING_SUBMAP2 mask -->
  <rect x="263" y="770" width="204" height="45" rx="6" fill="#0f172a"/>

  <!-- FILTERING mask -->
  <rect x="263" y="838" width="204" height="43" rx="6" fill="#0f172a"/>

  <!-- 收敛 diamond mask -->
  <polygon points="365,911 430,943 365,975 300,943" fill="#0f172a"/>

  <!-- DONE mask -->
  <rect x="263" y="1005" width="204" height="48" rx="24" fill="#0f172a"/>

  <!-- ===== Active: Component boxes ===== -->

  <!-- Start circle -->
  <circle cx="365" cy="78" r="12" fill="none" stroke="#60a5fa" stroke-width="2"/>

  <!-- IDLE (rounded, start/end style) -->
  <rect x="263" y="109" width="204" height="50" rx="25" fill="rgba(59, 130, 246, 0.15)" stroke="#60a5fa" stroke-width="1.5"/>
  <text x="365" y="130" fill="#60a5fa" font-size="12" font-weight="600" text-anchor="middle">IDLE</text>
  <text x="365" y="147" fill="#94a3b8" font-size="9" text-anchor="middle">空闲等待</text>

  <!-- BOOT_DELAY -->
  <rect x="263" y="180" width="204" height="48" rx="6" fill="rgba(8, 51, 68, 0.4)" stroke="#22d3ee" stroke-width="1.5"/>
  <text x="365" y="201" fill="white" font-size="11" font-weight="600" text-anchor="middle">BOOT_DELAY</text>
  <text x="365" y="217" fill="#94a3b8" font-size="9" text-anchor="middle">静止 2s 稳定传感器</text>

  <!-- 旋转采集决策 Diamond -->
  <polygon points="365,258 430,288 365,318 300,288" fill="rgba(120, 53, 15, 0.3)" stroke="#fbbf24" stroke-width="1.5"/>
  <text x="365" y="286" fill="#fbbf24" font-size="10" font-weight="600" text-anchor="middle">旋转采集?</text>
  <text x="365" y="300" fill="#94a3b8" font-size="8" text-anchor="middle">rotation_enabled</text>

  <!-- COLLECTING_SUBMAP1 -->
  <rect x="263" y="362" width="204" height="48" rx="6" fill="rgba(6, 78, 59, 0.4)" stroke="#34d399" stroke-width="1.5"/>
  <text x="365" y="383" fill="white" font-size="11" font-weight="600" text-anchor="middle">COLLECTING_SUBMAP1</text>
  <text x="365" y="399" fill="#94a3b8" font-size="9" text-anchor="middle">累积 N 帧 → 合成子图1</text>

  <!-- ROTATING_360 -->
  <rect x="513" y="318" width="194" height="45" rx="6" fill="rgba(6, 78, 59, 0.4)" stroke="#34d399" stroke-width="1.5"/>
  <text x="610" y="338" fill="white" font-size="11" font-weight="600" text-anchor="middle">ROTATING_360</text>
  <text x="610" y="354" fill="#94a3b8" font-size="9" text-anchor="middle">原地 360° 旋转采集</text>

  <!-- ACTIVE_MULTISTEP -->
  <rect x="513" y="392" width="194" height="49" rx="6" fill="rgba(76, 29, 149, 0.4)" stroke="#a78bfa" stroke-width="1.5"/>
  <text x="610" y="412" fill="white" font-size="11" font-weight="600" text-anchor="middle">ACTIVE_MULTISTEP</text>
  <text x="610" y="430" fill="#94a3b8" font-size="9" text-anchor="middle">逐帧递推匹配 (ICP+Sigma衰减)</text>

  <!-- ROUGH_MATCHING -->
  <rect x="263" y="435" width="204" height="48" rx="6" fill="rgba(76, 29, 149, 0.4)" stroke="#a78bfa" stroke-width="1.5"/>
  <text x="365" y="456" fill="white" font-size="11" font-weight="600" text-anchor="middle">ROUGH_MATCHING</text>
  <text x="365" y="472" fill="#94a3b8" font-size="9" text-anchor="middle">粗网格全局 + 精细局部搜索</text>

  <!-- quick_mode decision Diamond -->
  <polygon points="365,513 430,543 365,573 300,543" fill="rgba(120, 53, 15, 0.3)" stroke="#fbbf24" stroke-width="1.5"/>
  <text x="365" y="541" fill="#fbbf24" font-size="10" font-weight="600" text-anchor="middle">quick_mode?</text>
  <text x="365" y="555" fill="#94a3b8" font-size="8" text-anchor="middle">快速模式?</text>

  <!-- SELECTING_ACTIVE_MOTION -->
  <rect x="248" y="625" width="234" height="55" rx="6" fill="rgba(8, 51, 68, 0.4)" stroke="#22d3ee" stroke-width="1.5"/>
  <text x="365" y="646" fill="white" font-size="11" font-weight="600" text-anchor="middle">SELECTING_ACTIVE_MOTION</text>
  <text x="365" y="664" fill="#94a3b8" font-size="9" text-anchor="middle">信息增益选方向 + 安全检测</text>

  <!-- MOVING -->
  <rect x="263" y="700" width="204" height="45" rx="6" fill="rgba(8, 51, 68, 0.4)" stroke="#22d3ee" stroke-width="1.5"/>
  <text x="365" y="720" fill="white" font-size="11" font-weight="600" text-anchor="middle">MOVING</text>
  <text x="365" y="736" fill="#94a3b8" font-size="9" text-anchor="middle">P控制移动 + 实时避障</text>

  <!-- COLLECTING_SUBMAP2 -->
  <rect x="263" y="770" width="204" height="45" rx="6" fill="rgba(6, 78, 59, 0.4)" stroke="#34d399" stroke-width="1.5"/>
  <text x="365" y="790" fill="white" font-size="11" font-weight="600" text-anchor="middle">COLLECTING_SUBMAP2</text>
  <text x="365" y="806" fill="#94a3b8" font-size="9" text-anchor="middle">采集子图2 (新位置)</text>

  <!-- FILTERING -->
  <rect x="263" y="838" width="204" height="43" rx="6" fill="rgba(120, 53, 15, 0.3)" stroke="#fbbf24" stroke-width="1.5"/>
  <text x="365" y="857" fill="white" font-size="11" font-weight="600" text-anchor="middle">FILTERING</text>
  <text x="365" y="872" fill="#94a3b8" font-size="9" text-anchor="middle">运动验证 + 位姿传播 + 重评分</text>

  <!-- 收敛 decision Diamond -->
  <polygon points="365,911 430,943 365,975 300,943" fill="rgba(120, 53, 15, 0.3)" stroke="#fbbf24" stroke-width="1.5"/>
  <text x="365" y="941" fill="#fbbf24" font-size="10" font-weight="600" text-anchor="middle">收敛?</text>
  <text x="365" y="955" fill="#94a3b8" font-size="8" text-anchor="middle">best_prob &gt; 0.8 且</text>
  <text x="365" y="965" fill="#94a3b8" font-size="8" text-anchor="middle">best/2nd &ge; 2.0</text>

  <!-- DONE (rounded, end style) -->
  <rect x="263" y="1005" width="204" height="48" rx="24" fill="rgba(59, 130, 246, 0.15)" stroke="#60a5fa" stroke-width="1.5"/>
  <text x="365" y="1026" fill="#60a5fa" font-size="12" font-weight="600" text-anchor="middle">DONE</text>
  <text x="365" y="1042" fill="#94a3b8" font-size="9" text-anchor="middle">发布 /initialpose → AMCL</text>

  <!-- ===== Active: Annotation notes ===== -->

  <!-- ACTIVE_MULTISTEP detail note -->
  <rect x="513" y="452" width="194" height="32" rx="4" fill="rgba(76, 29, 149, 0.1)" stroke="none"/>
  <text x="610" y="464" fill="#a78bfa" font-size="7" text-anchor="middle">首帧: 全地图网格搜索 (~2m/15°)</text>
  <text x="610" y="476" fill="#a78bfa" font-size="7" text-anchor="middle">后续: ICP帧间 + 局部搜索 (sigma衰减)</text>

  <!-- ROUGH_MATCHING detail note -->
  <rect x="263" y="493" width="204" height="32" rx="4" fill="rgba(76, 29, 149, 0.1)" stroke="none"/>
  <text x="365" y="505" fill="#a78bfa" font-size="7" text-anchor="middle">Phase1: 1.5m/10° 网格 + NMS去冗余</text>
  <text x="365" y="517" fill="#a78bfa" font-size="7" text-anchor="middle">Phase2: Top3 ±2.5m/±15° 精细搜索</text>

  <!-- ============================================================ -->
  <!-- RIGHT PANEL: Passive Mode                                     -->
  <!-- ============================================================ -->

  <!-- Divider line -->
  <line x1="755" y1="60" x2="755" y2="1100" stroke="#334155" stroke-width="1"/>

  <!-- Title -->
  <text x="790" y="30" fill="#a78bfa" font-size="16" font-weight="700">被动模式 (Passive Mode)</text>
  <text x="790" y="48" fill="#64748b" font-size="9">不控制运动，仅监听扫描 + 定时匹配 → 持续输出位姿估计</text>

  <!-- Region -->
  <rect x="780" y="60" width="800" height="1060" rx="10" fill="none" stroke="#2d1e4e" stroke-width="1" stroke-dasharray="6,3"/>

  <!-- ===== Passive: Arrows ===== -->

  <!-- Start → IDLE -->
  <line x1="1140" y1="88" x2="1140" y2="109" stroke="#94a3b8" stroke-width="1.5" marker-end="url(#arrow)"/>

  <!-- IDLE → PASSIVE_COLLECTING -->
  <line x1="1140" y1="159" x2="1140" y2="190" stroke="#94a3b8" stroke-width="1.5" marker-end="url(#arrow)"/>
  <text x="1158" y="178" fill="#64748b" font-size="8">start_passive_calibration</text>

  <!-- PASSIVE_COLLECTING → PASSIVE_MATCHING -->
  <line x1="1140" y1="275" x2="1140" y2="330" stroke="#94a3b8" stroke-width="1.5" marker-end="url(#arrow)"/>
  <text x="1158" y="306" fill="#64748b" font-size="8">每 60s 被动定时器</text>

  <!-- Loop back: PASSIVE_MATCHING → PASSIVE_COLLECTING -->
  <path d="M 1250 380 L 1350 380 L 1350 230 L 1260 230" fill="none" stroke="#a78bfa" stroke-width="1.5" stroke-dasharray="6,3" marker-end="url(#arrow)"/>
  <text x="1358" y="308" fill="#a78bfa" font-size="8">更新估计 → 继续采集</text>

  <!-- stop → IDLE -->
  <path d="M 1140 395 L 1140 620 L 960 620 L 960 140 L 1048 140" fill="none" stroke="#fb7185" stroke-width="1.5" stroke-dasharray="6,3" marker-end="url(#arrow-rose)"/>
  <text x="950" y="390" fill="#fb7185" font-size="8" transform="rotate(-90 950 390)">stop_passive_calibration</text>

  <!-- ===== Passive: Masking rects ===== -->

  <circle cx="1140" cy="78" r="12" fill="#0f172a"/>

  <rect x="1038" y="109" width="204" height="50" rx="25" fill="#0f172a"/>

  <rect x="1025" y="190" width="230" height="55" rx="6" fill="#0f172a"/>

  <rect x="1025" y="330" width="230" height="55" rx="6" fill="#0f172a"/>

  <!-- ===== Passive: Component boxes ===== -->

  <!-- Start -->
  <circle cx="1140" cy="78" r="12" fill="none" stroke="#60a5fa" stroke-width="2"/>

  <!-- IDLE -->
  <rect x="1038" y="109" width="204" height="50" rx="25" fill="rgba(59, 130, 246, 0.15)" stroke="#60a5fa" stroke-width="1.5"/>
  <text x="1140" y="130" fill="#60a5fa" font-size="12" font-weight="600" text-anchor="middle">IDLE</text>
  <text x="1140" y="147" fill="#94a3b8" font-size="9" text-anchor="middle">空闲等待</text>

  <!-- PASSIVE_COLLECTING -->
  <rect x="1025" y="190" width="230" height="55" rx="6" fill="rgba(76, 29, 149, 0.4)" stroke="#a78bfa" stroke-width="1.5"/>
  <text x="1140" y="212" fill="white" font-size="11" font-weight="600" text-anchor="middle">PASSIVE_COLLECTING</text>
  <text x="1140" y="230" fill="#94a3b8" font-size="9" text-anchor="middle">_scan_cb 自动缓存 (环形缓冲 300帧)</text>

  <!-- PASSIVE_MATCHING -->
  <rect x="1025" y="330" width="230" height="55" rx="6" fill="rgba(76, 29, 149, 0.4)" stroke="#a78bfa" stroke-width="1.5"/>
  <text x="1140" y="352" fill="white" font-size="11" font-weight="600" text-anchor="middle">PASSIVE_MATCHING</text>
  <text x="1140" y="370" fill="#94a3b8" font-size="9" text-anchor="middle">取最近 30 帧 → 多步递推匹配</text>

  <!-- ===== Passive: Detail annotation box ===== -->

  <!-- Passive mode algorithm detail -->
  <rect x="830" y="430" width="340" height="160" rx="6" fill="rgba(76, 29, 149, 0.08)" stroke="#a78bfa" stroke-width="0.5"/>
  <text x="845" y="450" fill="#a78bfa" font-size="10" font-weight="600">被动匹配算法细节</text>

  <text x="845" y="470" fill="#94a3b8" font-size="8">有历史估计 (passive_best_pose):</text>
  <text x="855" y="485" fill="#c4b5fd" font-size="8">→ sigma=2.0m, ICP + 局部搜索 (±2m)</text>

  <text x="845" y="505" fill="#94a3b8" font-size="8">无历史估计 (首次):</text>
  <text x="855" y="520" fill="#c4b5fd" font-size="8">→ 全地图网格搜索 (2m步长, 15°角度)</text>

  <text x="845" y="540" fill="#94a3b8" font-size="8">后续帧:</text>
  <text x="855" y="555" fill="#c4b5fd" font-size="8">→ ICP帧间配准 + 局部搜索 (sigma衰减 decay=0.8)</text>

  <text x="845" y="575" fill="#94a3b8" font-size="8">输出:</text>
  <text x="855" y="590" fill="#c4b5fd" font-size="8">→ 发布到 debug/auto_initial_pose (不注入AMCL)</text>

  <!-- ===== Passive: Scan buffer annotation ===== -->
  <rect x="830" y="190" width="170" height="55" rx="6" fill="rgba(30, 41, 59, 0.5)" stroke="#94a3b8" stroke-width="0.5"/>
  <text x="915" y="210" fill="#94a3b8" font-size="9" font-weight="600" text-anchor="middle">被动扫描缓冲</text>
  <text x="915" y="226" fill="#64748b" font-size="8" text-anchor="middle">环形缓冲 300帧</text>
  <text x="915" y="240" fill="#64748b" font-size="8" text-anchor="middle">每帧自动 push</text>

  <!-- ===== Passive: Exclusions note ===== -->
  <rect x="830" y="620" width="370" height="120" rx="6" fill="rgba(136, 19, 55, 0.08)" stroke="#fb7185" stroke-width="0.5"/>
  <text x="845" y="640" fill="#fb7185" font-size="10" font-weight="600">主动/被动互斥规则</text>
  <text x="845" y="660" fill="#94a3b8" font-size="8">被动模式启动时检查:</text>
  <text x="855" y="678" fill="#fca5a5" font-size="8">→ 若处于主动模式各阶段 (BOOT_DELAY, ROTATING_360,</text>
  <text x="855" y="693" fill="#fca5a5" font-size="8">   COLLECTING_SUBMAP1/2, MATCHING, MOVING, FILTERING)</text>
  <text x="855" y="708" fill="#fca5a5" font-size="8">→ 则拒绝启动被动模式</text>
  <text x="845" y="728" fill="#94a3b8" font-size="8">被动定时器自动跳过 MOVING / ROTATING_360 阶段</text>

  <!-- ===== Passive: Service box ===== -->
  <rect x="830" y="770" width="340" height="90" rx="6" fill="rgba(8, 51, 68, 0.3)" stroke="#22d3ee" stroke-width="1"/>
  <text x="845" y="790" fill="#22d3ee" font-size="10" font-weight="600">被动模式服务接口</text>

  <text x="845" y="810" fill="#94a3b8" font-size="8">启动入口:</text>
  <text x="855" y="825" fill="#67e8f9" font-size="8">→ start_passive_calibration (Trigger)</text>
  <text x="855" y="840" fill="#67e8f9" font-size="8">→ start_auto_calibration (passive_mode_enabled=true 时)</text>

  <text x="845" y="858" fill="#94a3b8" font-size="8">停止:</text>
  <text x="855" y="858" fill="#fca5a5" font-size="8">→ stop_passive_calibration → IDLE</text>

  <!-- ============================================================ -->
  <!-- LEGEND -->
  <!-- ============================================================ -->

  <rect x="20" y="1130" width="1560" height="1" fill="#334155"/>

  <text x="30" y="1145" fill="#94a3b8" font-size="9" font-weight="600">图例:</text>

  <!-- Start/End -->
  <rect x="90" y="1136" width="20" height="12" rx="6" fill="rgba(59,130,246,0.15)" stroke="#60a5fa" stroke-width="1"/>
  <text x="120" y="1145" fill="#64748b" font-size="8">开始/结束</text>

  <!-- Process -->
  <rect x="200" y="1136" width="20" height="12" rx="3" fill="rgba(8,51,68,0.4)" stroke="#22d3ee" stroke-width="1"/>
  <text x="230" y="1145" fill="#64748b" font-size="8">动作/处理</text>

  <!-- Decision -->
  <polygon points="340,1142 352,1136 364,1142 352,1148" fill="rgba(120,53,15,0.3)" stroke="#fbbf24" stroke-width="1"/>
  <text x="374" y="1145" fill="#64748b" font-size="8">决策/分支</text>

  <!-- Match process -->
  <rect x="450" y="1136" width="20" height="12" rx="3" fill="rgba(76,29,149,0.4)" stroke="#a78bfa" stroke-width="1"/>
  <text x="480" y="1145" fill="#64748b" font-size="8">匹配/定位算法</text>

  <!-- Normal arrow -->
  <line x1="590" y1="1142" x2="620" y2="1142" stroke="#94a3b8" stroke-width="1.5" marker-end="url(#arrow)"/>
  <text x="630" y="1145" fill="#64748b" font-size="8">主流程</text>

  <!-- Retry arrow -->
  <line x1="700" y1="1142" x2="730" y2="1142" stroke="#fbbf24" stroke-width="1.5" stroke-dasharray="4,2" marker-end="url(#arrow-amber)"/>
  <text x="740" y="1145" fill="#64748b" font-size="8">重试回环</text>

  <!-- Error/reset arrow -->
  <line x1="810" y1="1142" x2="840" y2="1142" stroke="#fb7185" stroke-width="1.5" stroke-dasharray="4,2" marker-end="url(#arrow-rose)"/>
  <text x="850" y="1145" fill="#64748b" font-size="8">重置/退出</text>

  <!-- ============================================================ -->
  <!-- OUTDOOR MODE NOTE -->
  <!-- ============================================================ -->

  <rect x="830" y="900" width="340" height="85" rx="6" fill="rgba(120, 53, 15, 0.08)" stroke="#fbbf24" stroke-width="0.5"/>
  <text x="845" y="920" fill="#fbbf24" font-size="10" font-weight="600">室外模式 (Outdoor)</text>
  <text x="845" y="940" fill="#94a3b8" font-size="8">RTK/GPS 信号有效 → 自动切换室外</text>
  <text x="845" y="958" fill="#c4b5fd" font-size="8">读取 gps_map_calibration.yaml → GPS→Map 变换</text>
  <text x="845" y="976" fill="#c4b5fd" font-size="8">直接发布 /initialpose (无需匹配)</text>

</svg>
